<svg xmlns="http://www.w3.org/2000/svg" viewBox="0 0 19.84 22.78"><defs><style>.cls-1{fill:#fff;}</style></defs><title>Asset 1</title><g id="Layer_2" data-name="Layer 2"><g id="Layer_1-2" data-name="Layer 1"><path class="cls-1" d="M18.71,0H1.16A1.16,1.16,0,0,0,0,1.16V18.74a1.16,1.16,0,0,0,1.16,1.16H2v1.45a1.42,1.42,0,1,0,2.84,0V19.91H15v1.45a1.42,1.42,0,0,0,2.84,0V19.91h.81a1.16,1.16,0,0,0,1.16-1.16V1.16A1.15,1.15,0,0,0,18.71,0ZM9.92,17.78a7,7,0,0,1-5.68-3,18.21,18.21,0,0,0,5.68.91,18.39,18.39,0,0,0,5.68-.91A7,7,0,0,1,9.92,17.78Zm8-12.06a1.42,1.42,0,1,0,0,2.84v3.65a.15.15,0,0,1-.16.16H2.13A.15.15,0,0,1,2,12.21V8.6A1.42,1.42,0,1,0,2,5.75V2.1a.17.17,0,0,1,.16-.16H17.74a.15.15,0,0,1,.16.16V5.72Z"/></g></g></svg>